<?xml version="1.0" encoding="UTF-8" standalone="no"?>
<svg width="800" height="500" xmlns="http://www.w3.org/2000/svg" xmlns:xlink="http://www.w3.org/1999/xlink">
  <defs>
    <style>
      .switch-box { fill: #4A90E2; stroke: #2E5C8A; stroke-width: 2; }
      .server-box { fill: #7ED321; stroke: #5FA019; stroke-width: 2; }
      .controller-box { fill: #F5A623; stroke: #D68910; stroke-width: 2; }
      .switch-text { fill: white; font-family: Arial, sans-serif; font-size: 14px; font-weight: bold; text-anchor: middle; }
      .label-text { fill: rgba(255, 255, 255, 0.9); font-family: Arial, sans-serif; font-size: 11px; text-anchor: middle; }
      .ip-text { fill: rgba(255, 255, 255, 0.85); font-family: monospace; font-size: 10px; text-anchor: middle; }
      .link-line { stroke: #6a737d; stroke-width: 2; fill: none; }
      .link-label { fill: #8b949e; font-family: monospace; font-size: 9px; text-anchor: middle; }
      .mgmt-line { stroke: #F5A623; stroke-width: 2; stroke-dasharray: 5,5; fill: none; }
      .bg-label { fill: #6a737d; font-family: Arial, sans-serif; font-size: 11px; text-anchor: middle; }
    </style>
  </defs>

  <!-- Title -->
  <text x="400" y="25" style="font-family: Arial; font-size: 20px; font-weight: bold; text-anchor: middle; fill: #6a737d;">
    VLAN Trunking Topology
  </text>

  <!-- Management Network Line -->
  <line x1="50" y1="60" x2="750" y2="60" class="mgmt-line"/>
  <text x="400" y="53" class="bg-label">Management Network (192.168.32.0/24)</text>

  <!-- Controller -->
  <rect x="650" y="80" width="100" height="60" rx="5" class="controller-box"/>
  <text x="700" y="105" class="switch-text">controller</text>
  <text x="700" y="125" class="ip-text">192.168.32.254</text>

  <!-- Switch -->
  <rect x="350" y="180" width="120" height="70" rx="5" class="switch-box"/>
  <text x="410" y="205" class="switch-text">switch</text>
  <text x="410" y="222" class="label-text">VLANs 100-105</text>
  <text x="410" y="237" class="ip-text">192.168.32.11</text>

  <!-- Server Nodes -->
  <!-- Devstack -->
  <rect x="100" y="350" width="100" height="60" rx="5" class="server-box"/>
  <text x="150" y="375" class="switch-text">devstack</text>
  <text x="150" y="395" class="ip-text">192.168.32.20</text>

  <!-- Ironic0 -->
  <rect x="450" y="350" width="100" height="60" rx="5" class="server-box"/>
  <text x="500" y="375" class="switch-text">ironic0</text>
  <text x="500" y="395" class="ip-text">BM Node</text>

  <!-- Ironic1 -->
  <rect x="600" y="350" width="100" height="60" rx="5" class="server-box"/>
  <text x="650" y="375" class="switch-text">ironic1</text>
  <text x="650" y="395" class="ip-text">BM Node</text>

  <!-- Server to Switch connections -->
  <!-- Devstack to Switch -->
  <line x1="170" y1="350" x2="380" y2="250" class="link-line"/>
  <text x="240" y="295" class="link-label">Ethernet8 (trunk)</text>

  <!-- Ironic0 to Switch -->
  <line x1="480" y1="350" x2="420" y2="250" class="link-line"/>
  <text x="440" y="295" class="link-label">Ethernet12</text>

  <!-- Ironic1 to Switch -->
  <line x1="630" y1="350" x2="450" y2="250" class="link-line"/>
  <text x="555" y="295" class="link-label">Ethernet16</text>

  <!-- Legend -->
  <g transform="translate(50, 120)">
    <text x="0" y="0" style="font-family: Arial; font-size: 12px; font-weight: bold; fill: #6a737d;">Legend</text>
    <rect x="0" y="10" width="30" height="20" rx="3" class="switch-box"/>
    <text x="35" y="25" style="font-family: Arial; font-size: 11px; fill: #6a737d;">Switch</text>
    <rect x="0" y="35" width="30" height="20" rx="3" class="server-box"/>
    <text x="35" y="50" style="font-family: Arial; font-size: 11px; fill: #6a737d;">Server</text>
    <rect x="0" y="60" width="30" height="20" rx="3" class="controller-box"/>
    <text x="35" y="75" style="font-family: Arial; font-size: 11px; fill: #6a737d;">Controller</text>
    <line x1="0" y1="90" x2="30" y2="90" class="link-line"/>
    <text x="35" y="95" style="font-family: Arial; font-size: 11px; fill: #6a737d;">Link</text>
    <line x1="0" y1="105" x2="30" y2="105" class="mgmt-line"/>
    <text x="35" y="110" style="font-family: Arial; font-size: 11px; fill: #6a737d;">Management</text>
  </g>

  <!-- Notes -->
  <text x="400" y="460" style="font-family: Arial; font-size: 10px; text-anchor: middle; fill: #8b949e;">
    Ethernet8: Trunk port with VLANs 100-105 | Ethernet12, Ethernet16: Access ports for Ironic nodes
  </text>
  <text x="400" y="475" style="font-family: Arial; font-size: 10px; text-anchor: middle; fill: #8b949e;">
    networking-generic-switch manages VLAN membership dynamically
  </text>
</svg>
